<?xml version="1.0" encoding="utf-8"?>
<!-- Generator: Adobe Illustrator 24.1.1, SVG Export Plug-In . SVG Version: 6.00 Build 0)  -->
<svg version="1.1" id="레이어_1" xmlns="http://www.w3.org/2000/svg" xmlns:xlink="http://www.w3.org/1999/xlink" x="0px"
	 y="0px" viewBox="0 0 24 24" style="enable-background:new 0 0 24 24;" xml:space="preserve">
<path d="M21,10H3c-0.6,0-1,0.4-1,1c0,3.6,1.9,6.9,5,8.7V21c0,0.6,0.4,1,1,1h8c0.6,0,1-0.4,1-1v-1.3c3.1-1.8,5-5.1,5-8.7
	C22,10.4,21.6,10,21,10z"/>
<path d="M9,9V7.9c0-1.2-0.5-2.3-1.3-3.1C7.3,4.3,7,3.7,7,3V2H5v1c0,1.2,0.5,2.3,1.3,3.2C6.7,6.6,7,7.3,7,7.9V9H9z"/>
<path d="M13,9V7.9c0-1.2-0.5-2.3-1.3-3.2C11.3,4.3,11,3.7,11,3V2H9v1c0,1.2,0.5,2.3,1.3,3.2C10.7,6.6,11,7.3,11,7.9V9H13z"/>
<path d="M17,9V7.9c0-1.2-0.5-2.3-1.3-3.2C15.3,4.3,15,3.7,15,3V2h-2v1c0,1.2,0.5,2.3,1.3,3.2C14.7,6.6,15,7.3,15,7.9V9H17z"/>
</svg>
