<svg id="레이어_1" data-name="레이어 1" xmlns="http://www.w3.org/2000/svg" viewBox="0 0 325.84 305.18"><defs><style>.cls-1{fill:none;stroke:#866761;stroke-linecap:round;stroke-miterlimit:10;stroke-width:17px;}.cls-2,.cls-3{fill:#866761;}.cls-3{font-size:73px;font-family:ThecircleB;}</style></defs><path d="M271.78,159.64" transform="translate(-0.52 -24.33)"/><path class="cls-1" d="M273.78,189.64a109,109,0,0,1-218,0" transform="translate(-0.52 -24.33)"/><path d="M55.78,167.64" transform="translate(-0.52 -24.33)"/><path class="cls-2" d="M202,192c12.71,14.4,40.09,11,56.53-3.58,12.89-11.4,15.23-26.26,9.52-39.07l55.73-44.14a6.72,6.72,0,0,0,.85-9.72L312.8,82.1a6.74,6.74,0,0,0-9.75-.32l-50.62,49.9c-12-7.24-27.06-6.73-39.94,4.66C196,150.88,189.29,177.64,202,192Z" transform="translate(-0.52 -24.33)"/><text class="cls-3" transform="matrix(0.55, -0.84, 0.84, 0.55, 60.58, 155.17)">D</text><text class="cls-3" transform="translate(92.42 111.65) rotate(-30.08)">A</text><text class="cls-3" transform="matrix(0.99, -0.17, 0.17, 0.99, 137.86, 90.04)">I</text><text class="cls-3" transform="translate(164.39 85.78) rotate(9.31)">L</text><text class="cls-3" transform="matrix(0.87, 0.5, -0.5, 0.87, 200.4, 91.43)">Y</text></svg>